<?xml version="1.0" encoding="iso-8859-1"?>
<!-- Generator: Adobe Illustrator 19.0.0, SVG Export Plug-In . SVG Version: 6.00 Build 0)  -->
<svg version="1.1" id="Layer_1" xmlns="http://www.w3.org/2000/svg" xmlns:xlink="http://www.w3.org/1999/xlink" x="0px" y="0px"
	 viewBox="0 0 512 512" style="enable-background:new 0 0 512 512;" xml:space="preserve">
<path style="fill:#A53528;" d="M353.913,334.501c-1.938,1.049-48.369-26.905-135.656-19.681l-13.06,30.214l69.11,52.295
	l75.114-24.854L353.913,334.501z"/>
<path style="fill:#E24F62;" d="M95.182,447.814H44.698L31.939,215.662l-22.998-61.73c-2.081-5.584-1.781-11.778,0.827-17.136
	l29.228-60.036c7.614-15.641,29.589-16.482,38.377-1.469l135.106,230.806c6.697,11.442,15.704,21.363,26.445,29.133l0,0
	c29.743,21.517,69.186,24.081,101.466,6.596l13.523-7.325l136.572,50.761c13.63,5.066,16.877,23.072,5.666,32.333
	c-11.21,9.26-31.378,18.634-67.617,23.31H266.607c-19.832,0-38.485-9.416-50.263-25.372L106.559,266.791L95.182,447.814z"/>
<g>
	<polygon style="fill:#A53528;" points="44.636,447.814 95.121,447.814 97.526,409.552 42.533,409.552 	"/>
	<path style="fill:#A53528;" d="M78.346,227.923c-3.117-4.269-9.107-5.2-13.372-2.084c-4.267,3.118-5.2,9.104-2.084,13.372
		l41.964,57.452c0.683-9.574,1.483-20.76,2.112-29.557L78.346,227.923z"/>
	<path style="fill:#A53528;" d="M103.39,317.217l1.468-20.55l-0.002-0.003C104.05,307.943,103.405,316.982,103.39,317.217z"/>
	<path style="fill:#A53528;" d="M108.034,252.185c0.007-0.099,0.013-0.178,0.016-0.222L108.034,252.185z"/>
	<path style="fill:#A53528;" d="M108.05,251.962l0.004-0.056C108.054,251.907,108.052,251.927,108.05,251.962z"/>
	<path style="fill:#A53528;" d="M106.967,267.107c-0.629,8.796-1.428,19.982-2.112,29.557l0.002,0.003l2.111-29.558L106.967,267.107
		z"/>
</g>
<g style="opacity:0.3;">
	<path style="fill:#A53528;" d="M107.49,267.324l109.392,148.208c11.777,15.956,30.431,25.372,50.263,25.372h161.926
		c36.239-4.676,56.408-14.049,67.617-23.31c11.21-9.261,7.964-27.266-5.666-32.332l-5.706-2.121
		c-12.091,6.508-29.928,12.383-56.246,15.779H267.144c-19.832,0-38.485-9.416-50.263-25.372L78.346,227.923L107.49,267.324z"/>
</g>
<path d="M354.963,342.213c-2.136,0-4.435-0.943-7.811-2.328c-14.079-5.776-56.927-23.355-127.639-17.498
	c-4.17,0.347-7.836-2.758-8.182-6.931c-0.345-4.173,2.758-7.836,6.931-8.182c74.347-6.153,119.732,12.462,134.645,18.581
	c1.076,0.442,2.262,0.928,2.953,1.188c2.354,0.287,4.539,1.672,5.755,3.916c1.995,3.683,0.627,8.284-3.055,10.278
	C357.305,341.917,356.159,342.213,354.963,342.213z M351.349,327.897c-0.004,0.003-0.008,0.005-0.012,0.007
	C351.341,327.902,351.345,327.9,351.349,327.897z M351.362,327.89c-0.003,0.002-0.007,0.004-0.011,0.006
	C351.355,327.894,351.359,327.892,351.362,327.89z M351.377,327.884c-0.004,0.002-0.007,0.004-0.011,0.006
	C351.368,327.888,351.372,327.886,351.377,327.884z M351.388,327.877c-0.003,0.002-0.006,0.003-0.008,0.005
	C351.383,327.88,351.385,327.879,351.388,327.877z M351.4,327.871c-0.001,0.001-0.003,0.002-0.004,0.003
	C351.397,327.873,351.398,327.872,351.4,327.871z"/>
<path d="M511.616,399.011c-1.613-9.552-7.985-17.267-17.045-20.634L357.59,327.464c-2.049-0.763-4.33-0.602-6.253,0.441
	l-13.564,7.348c-29.629,16.05-66.412,13.658-93.714-6.093c-9.982-7.221-18.2-16.274-24.424-26.907L84.125,70.754
	c-5.493-9.385-15.654-14.922-26.521-14.539c-10.866,0.417-20.572,6.749-25.331,16.525L2.957,132.955
	c-3.507,7.205-3.914,15.644-1.117,23.152l22.663,60.834l12.734,231.696c0.221,4.02,3.544,7.167,7.571,7.167h50.636
	c4.002,0,7.316-3.112,7.567-7.106l10.105-160.79l32.496,44.025l0.032,0.043c0.001,0.001,0.002,0.002,0.003,0.004l65.222,88.365
	c13.185,17.863,34.311,28.529,56.512,28.529h162.41c0.325,0,0.649-0.021,0.97-0.063c32.517-4.195,56.633-12.626,71.678-25.054
	C509.779,417.695,513.209,408.444,511.616,399.011z M51.986,440.641l-1.276-23.213h39.073l-1.459,23.213H51.986z M492.783,412.067
	c-12.557,10.372-34.501,17.853-63.482,21.643h-161.92c-17.408,0-33.974-8.362-44.312-22.37l-65.178-88.306
	c0-0.001-0.001-0.001-0.001-0.002L82.796,220.225c-2.469-3.382-7.213-4.12-10.595-1.651c-3.382,2.47-4.121,7.214-1.651,10.595
	l28.603,39.16l-8.417,133.935H49.876L39.582,214.96c-0.042-0.763-0.199-1.515-0.465-2.231l-23.066-61.914
	c-1.356-3.64-1.159-7.73,0.541-11.222l29.316-60.214c2.341-4.811,6.931-7.804,12.277-8.01c5.346-0.207,10.152,2.429,12.854,7.047
	l135.51,231.496c7.295,12.462,16.925,23.071,28.624,31.532c31.994,23.146,75.103,25.948,109.824,7.14l10.537-5.708l133.754,49.715
	c3.919,1.456,6.676,4.8,7.377,8.945C497.354,405.622,495.939,409.46,492.783,412.067z"/>
<g>
</g>
<g>
</g>
<g>
</g>
<g>
</g>
<g>
</g>
<g>
</g>
<g>
</g>
<g>
</g>
<g>
</g>
<g>
</g>
<g>
</g>
<g>
</g>
<g>
</g>
<g>
</g>
<g>
</g>
</svg>
